<svg xmlns="http://www.w3.org/2000/svg" xmlns:xlink="http://www.w3.org/1999/xlink" width="1920" zoomAndPan="magnify" viewBox="0 0 1440 809.999993" height="1080" preserveAspectRatio="xMidYMid meet" version="1.0"><defs><g/><clipPath id="54215626ad"><rect x="0" width="1434" y="0" height="810"/></clipPath></defs><g transform="matrix(1, 0, 0, 1, 0, 0.000000000000039746)"><g clip-path="url(#54215626ad)"><g fill="#ffffff" fill-opacity="1"><g transform="translate(-49.558551, 587.049713)"><g><path d="M 458.53125 70.109375 C 453.15625 70.109375 448.988281 68.898438 446.03125 66.484375 C 443.082031 64.066406 440.800781 60.976562 439.1875 57.21875 C 437.570312 52.382812 436.226562 47.007812 435.15625 41.09375 C 434.082031 35.1875 431.664062 30.082031 427.90625 25.78125 C 424.144531 20.945312 419.578125 16.785156 414.203125 13.296875 C 408.828125 9.804688 403.1875 6.71875 397.28125 4.03125 C 391.90625 1.34375 386.53125 -0.9375 381.15625 -2.8125 C 375.789062 -4.695312 370.421875 -6.710938 365.046875 -8.859375 C 350.546875 -14.234375 335.234375 -18.800781 319.109375 -22.5625 C 306.753906 -25.789062 294.128906 -28.476562 281.234375 -30.625 C 278.015625 -31.15625 275.0625 -31.691406 272.375 -32.234375 C 269.6875 -32.773438 267 -33.046875 264.3125 -33.046875 C 257.332031 -33.046875 251.425781 -31.164062 246.59375 -27.40625 C 239.601562 -22.5625 233.15625 -17.1875 227.25 -11.28125 C 221.34375 -5.375 214.894531 -0.00390625 207.90625 4.828125 C 198.238281 11.273438 185.34375 17.316406 169.21875 22.953125 C 153.101562 28.597656 136.988281 31.421875 120.875 31.421875 C 107.976562 31.421875 96.15625 28.867188 85.40625 23.765625 C 74.664062 18.660156 66.878906 9.929688 62.046875 -2.421875 C 59.898438 -8.328125 58.828125 -14.234375 58.828125 -20.140625 C 58.828125 -30.890625 62.179688 -41.097656 68.890625 -50.765625 C 75.609375 -60.429688 83.804688 -67.6875 93.484375 -72.53125 C 104.222656 -78.4375 115.769531 -82.0625 128.125 -83.40625 C 140.476562 -84.75 152.566406 -85.421875 164.390625 -85.421875 C 169.222656 -85.421875 173.921875 -85.421875 178.484375 -85.421875 C 183.054688 -85.421875 187.757812 -85.148438 192.59375 -84.609375 C 196.351562 -84.609375 201.859375 -84.207031 209.109375 -83.40625 C 216.367188 -82.601562 221.070312 -82.203125 223.21875 -82.203125 C 229.125 -82.203125 233.421875 -83.273438 236.109375 -85.421875 C 239.335938 -88.640625 242.5625 -93.203125 245.78125 -99.109375 C 249.007812 -105.023438 251.960938 -110.398438 254.640625 -115.234375 C 260.015625 -124.367188 264.851562 -132.960938 269.15625 -141.015625 C 270.226562 -143.703125 271.835938 -147.0625 273.984375 -151.09375 C 276.128906 -155.125 277.203125 -157.945312 277.203125 -159.5625 C 277.203125 -161.164062 276.398438 -161.96875 274.796875 -161.96875 C 273.179688 -161.96875 271.164062 -161.566406 268.75 -160.765625 C 266.332031 -159.960938 264.316406 -159.5625 262.703125 -159.5625 C 260.015625 -159.019531 257.726562 -158.613281 255.84375 -158.34375 C 253.96875 -158.082031 251.6875 -157.953125 249 -157.953125 C 242.019531 -157.953125 235.976562 -159.960938 230.875 -163.984375 C 225.769531 -168.015625 223.21875 -173.789062 223.21875 -181.3125 C 223.21875 -188.300781 225.5 -193.269531 230.0625 -196.21875 C 234.632812 -199.175781 240.945312 -201.191406 249 -202.265625 C 251.6875 -202.804688 256.390625 -203.34375 263.109375 -203.875 C 269.828125 -204.414062 276.675781 -205.222656 283.65625 -206.296875 C 288.488281 -207.367188 292.921875 -208.976562 296.953125 -211.125 C 300.984375 -213.28125 304.070312 -217.039062 306.21875 -222.40625 C 310.519531 -231.007812 314.414062 -240.007812 317.90625 -249.40625 C 321.394531 -258.8125 325.019531 -268.078125 328.78125 -277.203125 C 337.375 -298.691406 346.101562 -320.179688 354.96875 -341.671875 C 363.832031 -363.160156 373.90625 -383.847656 385.1875 -403.734375 C 391.632812 -415.546875 399.019531 -427.628906 407.34375 -439.984375 C 415.675781 -452.347656 424.945312 -463.09375 435.15625 -472.21875 C 444.289062 -480.820312 454.363281 -487.671875 465.375 -492.765625 C 476.382812 -497.867188 488.875 -500.421875 502.84375 -500.421875 C 530.78125 -500.421875 551.195312 -489.945312 564.09375 -469 C 572.144531 -456.101562 576.171875 -439.71875 576.171875 -419.84375 C 576.171875 -408.019531 574.691406 -396.734375 571.734375 -385.984375 C 568.785156 -375.242188 565.164062 -364.773438 560.875 -354.578125 C 554.957031 -341.679688 547.832031 -329.457031 539.5 -317.90625 C 531.175781 -306.351562 522.453125 -295.472656 513.328125 -285.265625 C 494.523438 -263.773438 473.300781 -244.972656 449.65625 -228.859375 C 429.78125 -214.359375 409.367188 -202.539062 388.421875 -193.40625 C 381.972656 -190.71875 374.851562 -187.757812 367.0625 -184.53125 C 359.269531 -181.3125 352.421875 -178.359375 346.515625 -175.671875 C 342.210938 -173.523438 338.988281 -171.644531 336.84375 -170.03125 C 334.695312 -168.414062 332.28125 -165.191406 329.59375 -160.359375 C 326.90625 -154.984375 323.679688 -148.9375 319.921875 -142.21875 C 316.160156 -135.507812 312.664062 -129.203125 309.4375 -123.296875 C 306.757812 -117.921875 303.941406 -112.273438 300.984375 -106.359375 C 298.023438 -100.453125 295.203125 -94.816406 292.515625 -89.453125 C 290.910156 -85.691406 290.109375 -83.003906 290.109375 -81.390625 C 290.109375 -78.703125 291.445312 -76.953125 294.125 -76.140625 C 296.8125 -75.335938 300.578125 -74.398438 305.421875 -73.328125 C 310.785156 -72.253906 316.285156 -71.046875 321.921875 -69.703125 C 327.566406 -68.359375 333.347656 -66.878906 339.265625 -65.265625 C 352.691406 -62.046875 366.253906 -58.285156 379.953125 -53.984375 C 393.648438 -49.691406 406.945312 -44.59375 419.84375 -38.6875 C 431.664062 -33.3125 442.945312 -26.726562 453.6875 -18.9375 C 464.4375 -11.144531 472.492188 -1.070312 477.859375 11.28125 C 481.085938 18.800781 482.703125 27.394531 482.703125 37.0625 C 482.703125 45.125 480.953125 52.644531 477.453125 59.625 C 473.960938 66.613281 467.65625 70.109375 458.53125 70.109375 Z M 369.078125 -236.109375 C 371.222656 -236.109375 374.039062 -236.78125 377.53125 -238.125 C 381.03125 -239.46875 383.851562 -240.675781 386 -241.75 C 390.832031 -244.4375 395.394531 -247.253906 399.6875 -250.203125 C 403.988281 -253.160156 408.554688 -255.984375 413.390625 -258.671875 C 421.453125 -264.046875 429.242188 -269.820312 436.765625 -276 C 444.285156 -282.175781 451.539062 -288.757812 458.53125 -295.75 C 464.96875 -302.195312 471.410156 -308.910156 477.859375 -315.890625 C 484.304688 -322.867188 490.21875 -330.125 495.59375 -337.65625 C 504.1875 -350.007812 511.972656 -363.4375 518.953125 -377.9375 C 525.941406 -392.445312 529.4375 -407.222656 529.4375 -422.265625 C 529.4375 -430.316406 527.691406 -437.703125 524.203125 -444.421875 C 520.710938 -451.140625 514.128906 -454.5 504.453125 -454.5 C 492.640625 -454.5 482.03125 -450.601562 472.625 -442.8125 C 463.226562 -435.019531 454.898438 -425.75 447.640625 -415 C 440.390625 -404.257812 434.078125 -393.785156 428.703125 -383.578125 C 418.492188 -364.242188 408.957031 -345.171875 400.09375 -326.359375 C 391.238281 -307.554688 382.507812 -287.953125 373.90625 -267.546875 C 372.832031 -263.785156 371.488281 -260.289062 369.875 -257.0625 C 368.269531 -253.84375 366.929688 -250.351562 365.859375 -246.59375 C 364.242188 -239.601562 365.316406 -236.109375 369.078125 -236.109375 Z M 128.125 -13.703125 C 135.644531 -13.703125 143.4375 -14.503906 151.5 -16.109375 C 159.5625 -17.722656 166.8125 -19.601562 173.25 -21.75 C 181.3125 -24.976562 187.757812 -28.203125 192.59375 -31.421875 C 197.425781 -34.648438 199.84375 -37.609375 199.84375 -40.296875 C 199.84375 -42.984375 195.8125 -44.59375 187.75 -45.125 C 179.695312 -45.664062 171.910156 -45.9375 164.390625 -45.9375 C 160.628906 -45.9375 154.582031 -45.664062 146.25 -45.125 C 137.925781 -44.59375 130.273438 -42.984375 123.296875 -40.296875 C 117.921875 -38.679688 113.488281 -36.53125 110 -33.84375 C 106.507812 -31.15625 104.765625 -27.664062 104.765625 -23.375 C 104.765625 -19.613281 107.179688 -17.0625 112.015625 -15.71875 C 116.847656 -14.375 122.21875 -13.703125 128.125 -13.703125 Z M 128.125 -13.703125 "/></g></g></g><g fill="#ffffff" fill-opacity="1"><g transform="translate(442.807981, 587.049713)"><g><path d="M 148.28125 -331.203125 C 142.90625 -331.203125 138.335938 -332.546875 134.578125 -335.234375 C 130.816406 -337.921875 128.398438 -341.546875 127.328125 -346.109375 C 126.253906 -350.671875 125.71875 -355.375 125.71875 -360.21875 C 125.71875 -369.34375 127.863281 -378.066406 132.15625 -386.390625 C 136.457031 -394.722656 142.90625 -400.769531 151.5 -404.53125 C 154.71875 -406.144531 158.207031 -406.953125 161.96875 -406.953125 C 168.957031 -406.953125 175.003906 -404.535156 180.109375 -399.703125 C 185.210938 -394.867188 187.765625 -388.148438 187.765625 -379.546875 C 187.765625 -371.492188 184.941406 -362.765625 179.296875 -353.359375 C 173.660156 -343.960938 167.347656 -337.648438 160.359375 -334.421875 C 156.597656 -332.273438 152.570312 -331.203125 148.28125 -331.203125 Z M 79.78125 -18.53125 C 69.03125 -18.53125 60.160156 -20.546875 53.171875 -24.578125 C 46.191406 -28.609375 41.09375 -32.769531 37.875 -37.0625 C 33.570312 -43.507812 30.476562 -50.492188 28.59375 -58.015625 C 26.71875 -65.535156 25.78125 -73.054688 25.78125 -80.578125 C 25.78125 -96.703125 28.195312 -112.957031 33.03125 -129.34375 C 37.875 -145.726562 43.25 -161.441406 49.15625 -176.484375 C 52.375 -184.003906 55.726562 -191.523438 59.21875 -199.046875 C 62.71875 -206.566406 66.078125 -214.085938 69.296875 -221.609375 C 72.523438 -228.585938 75.75 -235.972656 78.96875 -243.765625 C 82.195312 -251.554688 86.765625 -258.140625 92.671875 -263.515625 C 97.503906 -267.804688 103.414062 -269.953125 110.40625 -269.953125 C 116.3125 -269.953125 121.144531 -268.207031 124.90625 -264.71875 C 128.664062 -261.226562 130.546875 -256.53125 130.546875 -250.625 C 130.546875 -244.707031 128.929688 -238.660156 125.703125 -232.484375 C 122.484375 -226.304688 119.800781 -221.066406 117.65625 -216.765625 C 113.894531 -209.242188 110.265625 -201.859375 106.765625 -194.609375 C 103.273438 -187.359375 99.648438 -179.972656 95.890625 -172.453125 C 92.671875 -164.390625 89.3125 -156.460938 85.8125 -148.671875 C 82.320312 -140.890625 79.238281 -132.695312 76.5625 -124.09375 C 74.945312 -118.1875 73.332031 -111.609375 71.71875 -104.359375 C 70.101562 -97.109375 69.296875 -89.988281 69.296875 -83 C 68.765625 -69.570312 73.332031 -62.859375 83 -62.859375 C 88.375 -62.859375 94.285156 -64.738281 100.734375 -68.5 C 108.253906 -73.332031 115.101562 -78.835938 121.28125 -85.015625 C 127.457031 -91.191406 132.960938 -97.773438 137.796875 -104.765625 C 142.628906 -111.210938 147.195312 -117.925781 151.5 -124.90625 C 155.800781 -131.882812 160.097656 -138.867188 164.390625 -145.859375 C 166.535156 -149.078125 168.816406 -152.566406 171.234375 -156.328125 C 173.660156 -160.085938 175.675781 -163.582031 177.28125 -166.8125 C 179.4375 -170.570312 181.316406 -174.0625 182.921875 -177.28125 C 184.535156 -180.507812 187.222656 -183.195312 190.984375 -185.34375 C 195.285156 -187.488281 199.046875 -188.5625 202.265625 -188.5625 C 207.640625 -188.5625 212.207031 -186.945312 215.96875 -183.71875 C 219.726562 -180.5 221.609375 -175.9375 221.609375 -170.03125 C 221.609375 -165.738281 220.53125 -161.578125 218.375 -157.546875 C 216.226562 -153.515625 214.351562 -149.617188 212.75 -145.859375 C 210.59375 -141.554688 208.441406 -137.390625 206.296875 -133.359375 C 204.148438 -129.335938 201.734375 -125.175781 199.046875 -120.875 C 189.367188 -103.6875 178.625 -87.300781 166.8125 -71.71875 C 154.988281 -57.21875 141.820312 -44.726562 127.3125 -34.25 C 112.8125 -23.769531 96.96875 -18.53125 79.78125 -18.53125 Z M 79.78125 -18.53125 "/></g></g></g><g fill="#ffffff" fill-opacity="1"><g transform="translate(574.159379, 587.049713)"><g><path d="M 4.828125 -5.640625 C 0.535156 -5.640625 -3.753906 -7.382812 -8.046875 -10.875 C -12.347656 -14.363281 -14.5 -19.066406 -14.5 -24.984375 C -14.5 -28.742188 -13.828125 -32.367188 -12.484375 -35.859375 C -11.140625 -39.347656 -9.929688 -42.707031 -8.859375 -45.9375 C -7.253906 -49.695312 -5.507812 -53.457031 -3.625 -57.21875 C -1.75 -60.976562 -0.00390625 -64.738281 1.609375 -68.5 C 4.835938 -75.476562 7.925781 -82.328125 10.875 -89.046875 C 13.832031 -95.765625 16.921875 -102.613281 20.140625 -109.59375 C 26.585938 -123.5625 32.628906 -136.859375 38.265625 -149.484375 C 43.910156 -162.109375 49.421875 -175.671875 54.796875 -190.171875 C 58.015625 -197.160156 60.832031 -204.144531 63.25 -211.125 C 65.675781 -218.113281 68.234375 -225.097656 70.921875 -232.078125 C 73.066406 -238.523438 75.210938 -245.238281 77.359375 -252.21875 C 79.503906 -259.207031 83 -265.117188 87.84375 -269.953125 C 92.132812 -274.785156 97.773438 -277.203125 104.765625 -277.203125 C 110.128906 -277.203125 114.828125 -275.320312 118.859375 -271.5625 C 122.890625 -267.800781 124.90625 -262.703125 124.90625 -256.265625 C 124.90625 -251.421875 123.695312 -245.773438 121.28125 -239.328125 C 118.863281 -232.890625 117.65625 -227.789062 117.65625 -224.03125 C 117.65625 -221.34375 118.726562 -220 120.875 -220 C 122.488281 -220 124.367188 -220.800781 126.515625 -222.40625 C 129.203125 -224.5625 131.890625 -226.847656 134.578125 -229.265625 C 137.265625 -231.679688 139.953125 -234.234375 142.640625 -236.921875 C 148.003906 -241.753906 153.238281 -246.316406 158.34375 -250.609375 C 163.445312 -254.910156 169.222656 -258.40625 175.671875 -261.09375 C 187.492188 -267 199.582031 -269.953125 211.9375 -269.953125 C 219.457031 -269.953125 226.707031 -268.472656 233.6875 -265.515625 C 240.675781 -262.566406 246.050781 -257.601562 249.8125 -250.625 C 254.644531 -242.019531 257.0625 -232.613281 257.0625 -222.40625 C 257.0625 -213.28125 255.582031 -204.285156 252.625 -195.421875 C 249.675781 -186.554688 246.320312 -178.363281 242.5625 -170.84375 C 236.113281 -157.945312 229.128906 -144.914062 221.609375 -131.75 C 214.085938 -118.59375 208.984375 -104.757812 206.296875 -90.25 C 205.753906 -88.101562 205.484375 -86.222656 205.484375 -84.609375 C 205.484375 -79.773438 206.691406 -75.613281 209.109375 -72.125 C 211.535156 -68.632812 215.164062 -66.890625 220 -66.890625 C 225.90625 -66.890625 232.882812 -69.707031 240.9375 -75.34375 C 249 -80.988281 255.445312 -86.226562 260.28125 -91.0625 C 270.488281 -101.269531 279.488281 -112.6875 287.28125 -125.3125 C 295.070312 -137.9375 302.726562 -150.425781 310.25 -162.78125 C 311.863281 -165.46875 313.472656 -168.285156 315.078125 -171.234375 C 316.691406 -174.191406 318.570312 -177.550781 320.71875 -181.3125 C 324.476562 -187.21875 330.390625 -190.441406 338.453125 -190.984375 C 342.753906 -190.984375 346.914062 -188.832031 350.9375 -184.53125 C 354.96875 -180.238281 356.984375 -175.40625 356.984375 -170.03125 C 356.984375 -168.414062 356.710938 -166.535156 356.171875 -164.390625 C 355.640625 -162.242188 354.566406 -159.289062 352.953125 -155.53125 C 350.804688 -151.226562 348.253906 -146.253906 345.296875 -140.609375 C 342.347656 -134.972656 339.53125 -130.273438 336.84375 -126.515625 C 329.320312 -112.546875 320.457031 -99.382812 310.25 -87.03125 C 301.113281 -74.675781 291.039062 -63.394531 280.03125 -53.1875 C 269.019531 -42.976562 257.066406 -35.1875 244.171875 -29.8125 C 235.035156 -26.050781 225.097656 -24.171875 214.359375 -24.171875 C 206.296875 -24.171875 198.367188 -25.78125 190.578125 -29 C 182.785156 -32.226562 176.207031 -37.335938 170.84375 -44.328125 C 167.082031 -49.691406 164.257812 -55.597656 162.375 -62.046875 C 160.5 -68.492188 159.5625 -74.941406 159.5625 -81.390625 C 159.5625 -88.910156 160.5 -96.429688 162.375 -103.953125 C 164.257812 -111.472656 166.546875 -118.457031 169.234375 -124.90625 C 172.453125 -131.882812 175.804688 -138.863281 179.296875 -145.84375 C 182.785156 -152.832031 186.410156 -159.820312 190.171875 -166.8125 C 193.929688 -173.257812 197.421875 -179.703125 200.640625 -186.140625 C 203.867188 -192.585938 206.828125 -199.304688 209.515625 -206.296875 C 210.054688 -207.910156 210.59375 -209.65625 211.125 -211.53125 C 211.664062 -213.414062 211.9375 -215.160156 211.9375 -216.765625 C 211.9375 -223.210938 208.710938 -226.4375 202.265625 -226.4375 C 200.117188 -226.4375 197.429688 -226.171875 194.203125 -225.640625 C 187.753906 -222.953125 181.707031 -219.59375 176.0625 -215.5625 C 170.425781 -211.53125 164.925781 -207.367188 159.5625 -203.078125 C 148.8125 -194.472656 138.46875 -185.203125 128.53125 -175.265625 C 118.59375 -165.328125 109.054688 -154.988281 99.921875 -144.25 C 90.785156 -132.96875 82.59375 -121.550781 75.34375 -110 C 68.09375 -98.445312 60.972656 -86.222656 53.984375 -73.328125 C 50.765625 -67.421875 47.675781 -61.378906 44.71875 -55.203125 C 41.769531 -49.023438 38.414062 -42.710938 34.65625 -36.265625 C 33.039062 -33.035156 31.289062 -29.539062 29.40625 -25.78125 C 27.53125 -22.019531 25.25 -18.53125 22.5625 -15.3125 C 17.726562 -8.863281 11.816406 -5.640625 4.828125 -5.640625 Z M 4.828125 -5.640625 "/></g></g></g><g fill="#ffffff" fill-opacity="1"><g transform="translate(840.891546, 587.049713)"><g><path d="M 97.5 1.609375 C 81.382812 1.609375 66.070312 -1.613281 51.5625 -8.0625 C 37.0625 -14.507812 26.320312 -26.054688 19.34375 -42.703125 C 15.582031 -52.910156 13.703125 -63.925781 13.703125 -75.75 C 13.703125 -92.9375 17.328125 -109.988281 24.578125 -126.90625 C 31.828125 -143.832031 39.75 -159.28125 48.34375 -173.25 C 59.625 -192.0625 73.320312 -209.789062 89.4375 -226.4375 C 105.5625 -243.09375 123.832031 -255.71875 144.25 -264.3125 C 149.082031 -266.46875 154.585938 -268.082031 160.765625 -269.15625 C 166.941406 -270.226562 172.71875 -270.765625 178.09375 -270.765625 C 190.988281 -270.765625 202.132812 -266.597656 211.53125 -258.265625 C 220.9375 -249.941406 225.640625 -239.066406 225.640625 -225.640625 C 225.640625 -216.503906 223.625 -207.367188 219.59375 -198.234375 C 215.5625 -189.097656 211.128906 -180.769531 206.296875 -173.25 C 199.847656 -164.65625 192.328125 -156.734375 183.734375 -149.484375 C 175.140625 -142.234375 166.273438 -135.648438 157.140625 -129.734375 C 152.304688 -126.515625 147.46875 -123.425781 142.625 -120.46875 C 137.789062 -117.519531 132.691406 -114.96875 127.328125 -112.8125 C 121.953125 -110.664062 116.441406 -108.785156 110.796875 -107.171875 C 105.160156 -105.566406 99.65625 -103.957031 94.28125 -102.34375 C 89.445312 -101.269531 84.070312 -99.925781 78.15625 -98.3125 C 72.25 -96.695312 67.414062 -94.28125 63.65625 -91.0625 C 60.4375 -87.832031 58.828125 -82.726562 58.828125 -75.75 C 58.828125 -62.320312 62.988281 -53.1875 71.3125 -48.34375 C 79.644531 -43.507812 88.644531 -41.09375 98.3125 -41.09375 C 111.738281 -41.09375 125.703125 -43.78125 140.203125 -49.15625 C 154.710938 -54.53125 167.878906 -60.976562 179.703125 -68.5 C 189.367188 -74.40625 198.097656 -80.984375 205.890625 -88.234375 C 213.679688 -95.492188 221.335938 -102.882812 228.859375 -110.40625 C 236.921875 -118.457031 244.441406 -127.179688 251.421875 -136.578125 C 258.410156 -145.984375 264.859375 -155.523438 270.765625 -165.203125 C 273.453125 -169.492188 276.132812 -174.054688 278.8125 -178.890625 C 281.5 -183.734375 285.265625 -187.226562 290.109375 -189.375 C 293.328125 -190.988281 296.550781 -191.796875 299.78125 -191.796875 C 306.21875 -191.796875 311.585938 -189.375 315.890625 -184.53125 C 318.035156 -181.851562 319.109375 -178.363281 319.109375 -174.0625 C 319.109375 -170.84375 318.570312 -168.019531 317.5 -165.59375 C 316.425781 -163.175781 315.082031 -160.359375 313.46875 -157.140625 C 310.78125 -152.304688 307.554688 -147.066406 303.796875 -141.421875 C 300.035156 -135.785156 296.546875 -130.550781 293.328125 -125.71875 C 286.878906 -115.507812 280.296875 -105.972656 273.578125 -97.109375 C 266.867188 -88.242188 259.484375 -79.78125 251.421875 -71.71875 C 235.304688 -55.0625 217.175781 -40.554688 197.03125 -28.203125 C 176.882812 -15.847656 155.53125 -7.253906 132.96875 -2.421875 C 121.144531 0.265625 109.320312 1.609375 97.5 1.609375 Z M 91.0625 -144.25 C 96.4375 -144.25 102.078125 -145.722656 107.984375 -148.671875 C 113.890625 -151.628906 118.992188 -154.179688 123.296875 -156.328125 C 128.128906 -159.015625 132.691406 -162.101562 136.984375 -165.59375 C 141.285156 -169.09375 145.316406 -172.453125 149.078125 -175.671875 C 150.691406 -177.285156 154.179688 -180.773438 159.546875 -186.140625 C 164.921875 -191.515625 170.023438 -197.289062 174.859375 -203.46875 C 179.703125 -209.65625 182.125 -214.894531 182.125 -219.1875 C 182.125 -222.414062 181.179688 -224.429688 179.296875 -225.234375 C 177.421875 -226.035156 175.40625 -226.4375 173.25 -226.4375 C 168.957031 -226.4375 163.988281 -225.226562 158.34375 -222.8125 C 152.707031 -220.394531 148.007812 -217.84375 144.25 -215.15625 C 139.414062 -211.9375 134.984375 -208.710938 130.953125 -205.484375 C 126.921875 -202.265625 122.753906 -198.503906 118.453125 -194.203125 C 110.929688 -186.679688 103.679688 -177.816406 96.703125 -167.609375 C 95.628906 -166.003906 93.75 -163.1875 91.0625 -159.15625 C 88.375 -155.125 87.03125 -151.765625 87.03125 -149.078125 C 87.03125 -145.859375 88.375 -144.25 91.0625 -144.25 Z M 91.0625 -144.25 "/></g></g></g><g fill="#ffffff" fill-opacity="1"><g transform="translate(1067.331723, 587.049713)"><g><path d="M 65.265625 1.609375 C 51.835938 1.609375 40.554688 -1.878906 31.421875 -8.859375 C 23.898438 -14.773438 18.929688 -22.164062 16.515625 -31.03125 C 14.097656 -39.894531 12.890625 -48.890625 12.890625 -58.015625 C 12.890625 -83.265625 17.859375 -108.113281 27.796875 -132.5625 C 37.734375 -157.007812 50.765625 -178.632812 66.890625 -197.4375 C 74.941406 -207.644531 84.070312 -216.910156 94.28125 -225.234375 C 104.488281 -233.554688 115.234375 -240.941406 126.515625 -247.390625 C 137.796875 -253.835938 148.132812 -258.269531 157.53125 -260.6875 C 166.9375 -263.101562 178.085938 -264.3125 190.984375 -264.3125 C 196.890625 -264.3125 202.660156 -263.503906 208.296875 -261.890625 C 213.941406 -260.285156 219.453125 -259.484375 224.828125 -259.484375 C 229.660156 -259.484375 233.957031 -260.421875 237.71875 -262.296875 C 241.476562 -264.179688 245.238281 -265.125 249 -265.125 C 254.375 -265.125 258.804688 -263.242188 262.296875 -259.484375 C 265.796875 -255.722656 267.546875 -251.425781 267.546875 -246.59375 C 267.546875 -240.144531 265.796875 -233.425781 262.296875 -226.4375 C 258.804688 -219.457031 255.988281 -213.550781 253.84375 -208.71875 C 249.539062 -198.507812 244.972656 -188.4375 240.140625 -178.5 C 235.304688 -168.5625 231.273438 -158.21875 228.046875 -147.46875 C 225.898438 -139.40625 223.617188 -130.804688 221.203125 -121.671875 C 218.785156 -112.546875 217.578125 -103.6875 217.578125 -95.09375 C 217.578125 -84.34375 219.050781 -76.953125 222 -72.921875 C 224.957031 -68.898438 228.585938 -66.890625 232.890625 -66.890625 C 238.796875 -66.890625 244.835938 -69.171875 251.015625 -73.734375 C 257.191406 -78.296875 262.160156 -82.457031 265.921875 -86.21875 C 273.984375 -94.28125 281.238281 -103.007812 287.6875 -112.40625 C 294.132812 -121.8125 300.046875 -131.347656 305.421875 -141.015625 C 308.097656 -145.316406 310.78125 -150.019531 313.46875 -155.125 C 316.15625 -160.226562 318.84375 -165.46875 321.53125 -170.84375 C 327.4375 -183.195312 336.03125 -189.375 347.3125 -189.375 C 352.6875 -189.375 356.582031 -187.625 359 -184.125 C 361.414062 -180.632812 362.625 -176.472656 362.625 -171.640625 C 362.625 -166.273438 361.28125 -160.90625 358.59375 -155.53125 C 352.6875 -143.707031 346.109375 -131.078125 338.859375 -117.640625 C 331.609375 -104.210938 323.953125 -91.859375 315.890625 -80.578125 C 306.222656 -67.148438 294.941406 -55.066406 282.046875 -44.328125 C 274.523438 -38.953125 266.597656 -34.113281 258.265625 -29.8125 C 249.941406 -25.519531 241.210938 -23.375 232.078125 -23.375 C 216.503906 -23.375 205.222656 -26.726562 198.234375 -33.4375 C 191.253906 -40.15625 184.539062 -49.425781 178.09375 -61.25 C 175.945312 -64.46875 173.796875 -66.078125 171.640625 -66.078125 C 168.953125 -66.078125 164.921875 -62.988281 159.546875 -56.8125 C 154.179688 -50.632812 149.882812 -45.929688 146.65625 -42.703125 C 139.675781 -34.648438 130.675781 -26.59375 119.65625 -18.53125 C 108.644531 -10.476562 98.304688 -4.835938 88.640625 -1.609375 C 80.585938 0.535156 72.796875 1.609375 65.265625 1.609375 Z M 70.921875 -41.90625 C 76.828125 -41.90625 83.539062 -44.320312 91.0625 -49.15625 C 99.65625 -54.53125 107.304688 -61.109375 114.015625 -68.890625 C 120.734375 -76.679688 127.050781 -84.335938 132.96875 -91.859375 C 139.945312 -100.992188 146.925781 -110.128906 153.90625 -119.265625 C 160.894531 -128.398438 167.34375 -137.800781 173.25 -147.46875 C 179.164062 -156.0625 185.75 -165.726562 193 -176.46875 C 200.25 -187.21875 203.875 -197.96875 203.875 -208.71875 C 203.875 -214.082031 202.257812 -217.703125 199.03125 -219.578125 C 195.8125 -221.460938 191.785156 -222.40625 186.953125 -222.40625 C 181.578125 -222.40625 176.203125 -221.734375 170.828125 -220.390625 C 165.460938 -219.054688 160.898438 -217.582031 157.140625 -215.96875 C 137.796875 -207.90625 120.875 -195.546875 106.375 -178.890625 C 92.9375 -163.847656 80.976562 -145.851562 70.5 -124.90625 C 60.03125 -103.957031 54.796875 -83.8125 54.796875 -64.46875 C 54.796875 -58.5625 56.003906 -53.320312 58.421875 -48.75 C 60.835938 -44.1875 65.003906 -41.90625 70.921875 -41.90625 Z M 70.921875 -41.90625 "/></g></g></g></g></g></svg>
